# xmcd
#
# Track frame offsets:
#	150
#	11106
#	22012
#	30790
#	40467
#	55023
#	66891
#	79970
#	90836
#	102000
#	113014
#	124239
#	137040
#	149442
#	162131
#	175814
#	186883
#	199408
#
# Disc length: 2971 seconds
#
# Revision: 0
# Processed by: cddbd v1.5.1PL0 Copyright (c) Steve Scherf et al.
# Submitted via: dBpowerAMP V4.0
#
DISCID=ef0b9912
DTITLE=Johnny Copeland - Collection: Working Man's Blues
DYEAR=2002
DGENRE=Blues
TTITLE0=Down On Bending Knees
TTITLE1=Please Let me Know
TTITLE2=Hear What I Said
TTITLE3=Late Hours
TTITLE4=I Need You Now
TTITLE5=Heebie Jeebie
TTITLE6=Just One More Time
TTITLE7=There's A Blessing
TTITLE8=May The Best Man Win
TTITLE9=Mama Told Me
TTITLE10=Your Game Is Working
TTITLE11=I'll Be Around
TTITLE12=Funny Feeling
TTITLE13=I Got To Go Home
TTITLE14=Working Man's Blues
TTITLE15=Coming To See About You
TTITLE16=It's My Own Tears That's Being Wasted
TTITLE17=Night Time Parts 1 and 2
EXTD=
EXTT0=
EXTT1=
EXTT2=
EXTT3=
EXTT4=
EXTT5=
EXTT6=
EXTT7=
EXTT8=
EXTT9=
EXTT10=
EXTT11=
EXTT12=
EXTT13=
EXTT14=
EXTT15=
EXTT16=
EXTT17=
PLAYORDER=
